<svg width="116" height="117" viewBox="0 0 116 117" fill="none" xmlns="http://www.w3.org/2000/svg">
<g clip-path="url(#clip0)">
<rect width="116" height="117" fill="white"/>
<rect x="0.75" y="75.75" width="39.5" height="39.5" rx="3.25" fill="white" stroke="#BCC7D6" stroke-width="1.5"/>
<path d="M13.5825 96.0625L23.0486 105.529C23.362 105.831 23.8614 105.823 24.164 105.509C24.4593 105.203 24.4593 104.719 24.164 104.413L15.2557 95.5048L24.164 86.5964C24.472 86.2884 24.472 85.789 24.164 85.481C23.856 85.173 23.3567 85.173 23.0486 85.481L13.5825 94.9471C13.2746 95.2551 13.2746 95.7545 13.5825 96.0625Z" fill="#5D8AC5" stroke="#5D8AC5"/>
<rect x="75.75" y="75.75" width="39.5" height="39.5" rx="3.25" fill="#5D8AC5" stroke="#5D8AC5" stroke-width="1.5"/>
<path d="M88.5825 96.0625L98.0486 105.529C98.362 105.831 98.8614 105.823 99.164 105.509C99.4593 105.203 99.4593 104.719 99.164 104.413L90.2557 95.5048L99.164 86.5964C99.472 86.2884 99.472 85.789 99.164 85.481C98.856 85.173 98.3567 85.173 98.0486 85.481L88.5825 94.9471C88.2746 95.2551 88.2746 95.7545 88.5825 96.0625Z" fill="white" stroke="white"/>
<rect x="40.25" y="40.25" width="39.5" height="39.5" rx="3.25" transform="rotate(-180 40.25 40.25)" fill="white" stroke="#BCC7D6" stroke-width="1.5"/>
<path d="M27.4175 19.9375L17.9514 10.4714C17.638 10.1688 17.1386 10.1775 16.836 10.4908C16.5407 10.7965 16.5407 11.2812 16.836 11.5868L25.7443 20.4952L16.836 29.4036C16.528 29.7116 16.528 30.211 16.836 30.519C17.144 30.827 17.6433 30.827 17.9514 30.519L27.4175 21.0529C27.7254 20.7449 27.7254 20.2455 27.4175 19.9375Z" fill="#5D8AC5" stroke="#5D8AC5"/>
<rect x="115.25" y="40.25" width="39.5" height="39.5" rx="3.25" transform="rotate(-180 115.25 40.25)" fill="#5D8AC5" stroke="#5D8AC5" stroke-width="1.5"/>
<path d="M102.417 19.9375L92.9514 10.4714C92.638 10.1688 92.1386 10.1775 91.836 10.4908C91.5407 10.7965 91.5407 11.2812 91.836 11.5868L100.744 20.4952L91.836 29.4036C91.528 29.7116 91.528 30.211 91.836 30.519C92.144 30.827 92.6433 30.827 92.9514 30.519L102.417 21.0529C102.725 20.7449 102.725 20.2455 102.417 19.9375Z" fill="white" stroke="white"/>
</g>
<defs>
<clipPath id="clip0">
<rect width="116" height="117" fill="white"/>
</clipPath>
</defs>
</svg>
